HIERARCHY
ROOT hip
{
	OFFSET 0.000000 0.000000 0.000000
	CHANNELS 6  Xposition Yposition Zposition Xrotation Zrotation Yrotation
	JOINT abdomen
	{
		OFFSET 0.000000 3.402643 0.000000
			CHANNELS 3 Xrotation Zrotation Yrotation
		JOINT chest
		{
			OFFSET 0.000000 8.438565 -0.680529
				CHANNELS 3 Xrotation Zrotation Yrotation
			JOINT neck
			{
				OFFSET 0.000000 10.207942 -0.272212
					CHANNELS 3 Xrotation Zrotation Yrotation
				JOINT head
				{
					OFFSET 0.000000 3.130431 0.000000
						CHANNELS 3 Xrotation Zrotation Yrotation
					End Site
					{
						OFFSET 0.000000 3.130435 0.000000
					}
				}
			}
			JOINT lCollar
			{
				OFFSET 3.470700 6.669187 -0.816635
					CHANNELS 3 Yrotation Zrotation Xrotation
				JOINT lShldr
				{
					OFFSET 3.198488 0.000000 0.000000
						CHANNELS 3 Zrotation Yrotation Xrotation
					JOINT lForeArm
					{
						OFFSET 10.139888 0.000000 0.000000
							CHANNELS 3 Yrotation Zrotation Xrotation
						JOINT lHand
						{
							OFFSET 8.370511 0.000000 0.000000
								CHANNELS 3 Zrotation Yrotation Xrotation
							End Site
							{
								OFFSET 4.083176 0.000000 0.000000
							}
						}
					}
				}
			}
			JOINT rCollar
			{
				OFFSET -3.470700 6.669187 -0.816635
					CHANNELS 3 Yrotation Zrotation Xrotation
				JOINT rShldr
				{
					OFFSET -3.198488 0.000000 0.000000
						CHANNELS 3 Zrotation Yrotation Xrotation
					JOINT rForeArm
					{
						OFFSET -10.139888 0.000000 0.000000
							CHANNELS 3 Yrotation Zrotation Xrotation
						JOINT rHand
						{
							OFFSET -8.370511 0.000000 0.000000
								CHANNELS 3 Zrotation Yrotation Xrotation
							End Site
							{
								OFFSET -4.083176 0.000000 0.000000
							}
						}
					}
				}
			}
		}
	}
	JOINT lThigh 
	{
		OFFSET 5.308129 -1.633274 1.361059
			CHANNELS 3 Xrotation Zrotation Yrotation
		JOINT lShin
		{
			OFFSET -2.041588 -20.007561 0.000000
				CHANNELS 3 Xrotation Zrotation Yrotation
			JOINT lFoot
			{
				OFFSET 0.000000 -19.190928 -1.224953
					CHANNELS 3 Xrotation Yrotation Zrotation
				End Site
				{
					OFFSET 0.000000 -2.449906 4.627600
				}
			}
		}
	}
	JOINT rThigh
	{
		OFFSET -5.308129 -1.633274 1.361059
			CHANNELS 3 Xrotation Zrotation Yrotation
		JOINT rShin
		{
			OFFSET 2.041588 -20.007561 0.000000
				CHANNELS 3 Xrotation Zrotation Yrotation
			JOINT rFoot
			{
				OFFSET 0.000000 -19.190928 -1.224953
					CHANNELS 3 Xrotation Yrotation Zrotation
				End Site
				{
					OFFSET 0.000000 -2.449906 4.627600
				}
			}
		}
	}
}
MOTION
Frames: 21
Frame Time: 0.032000
1697.581055 47.167805 3326.209717 18.84 -11.33 24.90 1.12 -1.07 9.30 0.47 -0.46 3.99 -2.61 -1.46 -2.92 7.56 0.13 -2.88 0.78 -2.53 -0.11 -68.09 35.16 14.60 -111.13 2.45 28.77 13.11 15.72 3.58 4.83 -5.94 -0.02 78.46 -3.17 25.81 100.09 -2.63 29.39 -44.18 -0.43 0.32 -52.10 4.07 3.20 34.10 -1.04 -2.70 14.69 -6.39 -10.79 -17.68 -5.52 -8.69 102.86 -3.85 3.51 -0.00 -0.00 0.00 
1704.621582 45.592735 3340.391357 20.84 -7.95 24.57 2.42 -3.92 2.77 1.04 -1.67 1.18 -5.10 -0.37 -0.55 5.52 1.79 -0.51 2.20 -5.77 -0.10 -72.17 16.70 12.88 -109.14 2.59 31.44 14.07 15.20 3.67 5.10 -5.13 -0.06 79.94 -10.49 17.83 89.26 -2.91 32.85 -38.26 10.03 -7.92 -49.20 0.34 7.17 46.11 -0.63 -2.96 -0.87 -4.22 -12.08 -32.21 -11.89 -6.54 118.98 -4.62 2.58 -0.00 -0.00 0.00 
1703.751099 45.570526 3338.644531 21.47 -6.92 24.48 4.14 -3.72 -4.04 1.76 -1.59 -1.72 -6.16 0.10 1.30 4.99 3.84 1.24 0.25 -4.81 -0.16 -77.88 -2.57 10.04 -108.32 3.09 38.37 13.45 13.59 3.10 5.26 -5.21 -0.05 78.23 -21.77 11.06 85.20 -3.01 34.94 -34.38 10.07 -7.06 -40.59 -2.11 4.15 48.39 -0.65 -3.17 -6.36 -2.60 -12.47 -51.41 -13.23 -4.04 123.92 -4.84 2.33 -0.00 -0.00 0.00 
1707.049316 46.973881 3345.276367 21.84 -9.32 24.38 3.91 0.61 -10.09 1.67 0.26 -4.32 -5.68 -0.18 4.64 6.09 1.74 4.63 1.17 -3.33 -0.11 -83.91 -13.41 7.76 -111.31 3.22 40.86 15.12 14.13 3.71 4.34 -6.16 -0.06 68.19 -31.49 16.97 86.58 -2.86 33.56 -33.55 10.33 -6.88 -30.23 0.09 0.83 44.40 -0.29 -3.21 -0.76 -4.33 -12.27 -66.38 -10.86 -4.94 116.12 -4.48 3.09 -0.00 -0.00 0.00 
1714.865356 48.776184 3361.033203 21.63 -11.49 24.41 3.18 3.43 -13.60 1.36 1.47 -5.82 -5.43 1.54 7.68 6.77 -1.69 7.92 3.07 -1.41 -0.10 -86.44 -17.46 7.51 -115.57 3.22 39.87 11.34 13.53 2.66 4.57 -8.06 -0.09 59.71 -40.26 24.43 88.57 -2.64 30.10 -34.00 10.20 -7.02 -19.89 4.16 1.03 37.48 -0.76 -2.40 12.01 -8.97 -10.32 -72.50 -6.57 -4.02 100.56 -3.68 3.53 -0.00 -0.00 0.00 
1708.938232 48.719196 3349.080811 23.38 -13.25 24.10 3.98 6.19 -15.88 1.71 2.65 -6.80 -8.56 3.84 7.21 7.96 -4.01 7.85 2.69 -0.92 -0.14 -87.06 -22.72 11.30 -120.06 3.20 39.98 15.69 17.22 4.70 5.56 -11.70 -0.01 54.64 -48.12 27.63 88.82 -1.44 15.12 -29.44 14.68 -8.26 -17.21 5.87 0.04 35.31 -0.98 -2.53 11.69 -4.50 -11.06 -80.91 -3.71 -0.10 98.99 -3.39 3.48 -0.00 -0.00 0.00 
1717.796387 50.282421 3366.930664 23.46 -14.94 24.11 3.09 7.91 -15.31 1.32 3.39 -6.55 -7.36 4.24 8.20 7.92 -7.53 9.01 3.33 -0.45 -0.15 -85.46 -19.48 10.57 -122.20 3.21 40.93 18.90 19.22 6.35 7.43 -13.26 -0.03 53.13 -58.25 27.86 91.38 -2.15 23.59 -35.26 16.94 -11.90 -10.06 8.34 4.45 35.41 -0.83 -2.75 23.44 -3.84 -10.66 -77.75 -1.46 1.11 72.44 -1.76 3.80 -0.00 -0.00 0.00 
1724.967163 50.719864 3381.381592 23.85 -13.49 24.01 3.52 8.81 -15.25 1.51 3.78 -6.54 -7.94 4.15 8.65 8.01 -9.40 9.32 3.68 -1.11 -0.11 -84.44 -15.51 8.76 -120.25 3.35 43.20 14.23 12.66 3.16 7.72 -13.03 -0.11 60.97 -61.99 16.54 92.28 -2.80 31.31 -38.11 20.48 -15.46 -9.84 6.55 3.61 52.88 -0.02 -3.18 28.44 -5.44 -9.42 -70.10 -3.15 1.22 46.27 -0.22 2.92 -0.00 -0.00 0.00 
1724.309937 49.954533 3380.058105 22.98 -11.94 24.17 4.28 9.39 -13.29 1.83 4.02 -5.69 -7.30 3.32 7.77 7.56 -11.76 8.54 3.07 -1.45 -0.09 -84.69 -10.41 10.14 -115.31 3.62 46.22 13.28 14.09 3.30 6.24 -10.69 -0.13 68.12 -55.06 6.56 93.16 -2.70 31.07 -34.32 18.98 -12.70 -12.26 4.00 3.35 75.66 1.02 -3.78 31.14 -5.06 -9.55 -62.63 -4.49 -0.68 34.25 0.76 2.27 -0.00 -0.00 0.00 
1728.052246 48.483822 3387.599121 21.17 -12.27 24.51 3.50 10.72 -8.90 1.50 4.60 -3.80 -4.39 1.54 6.32 7.34 -13.41 6.92 1.97 -1.72 -0.11 -85.79 -2.71 12.67 -107.68 3.51 43.33 12.63 17.05 3.69 4.84 -6.27 -0.09 66.58 -43.69 5.01 94.10 -2.51 29.07 -29.44 12.28 -7.06 -16.38 4.08 6.17 98.21 2.34 -3.85 31.87 -2.10 -11.06 -55.91 -3.65 -5.99 35.93 0.68 2.23 -0.00 -0.00 0.00 
1735.092651 46.431343 3401.771729 19.96 -14.84 24.79 2.70 13.09 -2.43 1.16 5.61 -1.04 -4.29 -0.69 5.04 6.52 -14.44 5.49 2.20 -3.33 -0.05 -85.96 5.17 14.25 -98.17 3.13 39.58 13.44 17.09 4.04 3.74 -1.97 -0.05 64.90 -25.47 5.28 94.87 -2.40 27.68 -27.07 11.67 -6.13 -28.22 7.37 8.39 119.47 3.73 -3.58 36.04 -6.27 -7.95 -50.35 -0.76 -10.34 44.44 0.42 2.50 -0.00 -0.00 0.00 
1734.216309 45.464684 3400.013184 18.74 -17.40 25.13 4.12 13.56 3.65 1.75 5.81 1.56 -7.51 -0.28 4.43 6.45 -16.14 5.19 1.14 -2.24 -0.13 -85.91 14.21 11.23 -93.50 3.09 37.88 14.95 20.47 5.34 5.16 -0.96 -0.09 68.20 -3.50 7.25 97.27 -2.56 29.51 -28.52 13.31 -7.23 -48.06 10.34 5.37 130.34 4.37 -3.04 39.63 -9.84 -4.83 -44.12 4.19 -6.95 50.07 0.08 3.19 -0.00 -0.00 0.00 
1737.869751 46.130833 3407.370361 20.08 -15.42 24.79 3.90 10.52 7.65 1.67 4.50 3.28 -6.94 -0.39 2.37 7.16 -14.76 2.96 0.78 -0.48 -0.18 -80.92 24.63 14.23 -93.98 2.70 32.28 15.40 22.25 5.97 6.43 -3.48 -0.05 75.53 12.36 10.34 102.51 -2.58 30.74 -30.70 11.23 -6.67 -67.21 5.79 2.58 126.54 4.47 -3.12 36.74 -4.44 -9.21 -33.45 2.43 -2.99 48.42 0.01 3.25 -0.00 -0.00 0.00 
1745.733276 48.018261 3423.212891 22.16 -11.46 24.31 2.54 6.62 10.88 1.09 2.83 4.66 -5.31 -1.94 -1.73 9.15 -10.84 -1.61 -0.07 0.87 -0.04 -70.03 34.42 23.49 -99.33 2.75 32.63 13.56 20.28 4.80 4.85 -6.11 -0.01 78.42 19.54 15.19 110.26 -2.65 32.36 -31.38 9.33 -5.77 -75.18 -1.85 0.54 108.15 3.57 -3.44 28.76 -0.55 -12.07 -21.01 -3.54 -3.20 42.90 0.02 2.51 -0.00 -0.00 0.00 
1745.460938 49.718418 3422.659180 23.82 -9.72 24.01 0.97 3.69 13.77 0.41 1.58 5.89 -4.76 -3.63 -4.86 9.91 -8.15 -5.00 -1.50 1.85 -0.13 -59.67 43.13 29.44 -105.66 2.31 27.50 12.09 18.92 3.95 3.45 -7.58 -0.07 76.98 19.47 17.68 116.85 -2.63 32.21 -30.60 10.13 -6.07 -74.93 -4.84 -1.56 83.03 1.81 -4.29 25.48 -2.00 -11.40 -13.30 -6.55 -5.20 41.15 0.16 2.44 -0.00 -0.00 0.00 
1748.409790 50.616241 3428.601318 22.91 -10.96 24.17 0.61 2.11 16.51 0.26 0.90 7.07 -5.08 -4.44 -6.16 10.14 -5.29 -6.58 -2.25 2.26 -0.09 -51.83 50.91 31.85 -111.15 2.02 24.85 12.67 17.43 3.81 3.72 -8.09 -0.14 74.92 16.82 19.70 119.68 -2.54 31.74 -30.37 11.84 -7.02 -69.37 -2.17 -3.82 53.60 -0.27 -3.74 22.18 -2.36 -11.22 -9.23 -5.05 -5.04 49.61 0.02 3.01 -0.00 -0.00 0.00 
1755.989014 50.329052 3443.875244 21.36 -12.05 24.47 1.47 0.79 16.74 0.63 0.33 7.17 -6.01 -3.34 -6.17 10.10 -3.89 -6.40 -2.24 2.60 -0.09 -54.85 52.19 25.96 -113.04 2.22 25.37 11.18 16.63 3.29 4.03 -7.38 -0.02 75.01 13.24 22.06 117.25 -2.63 31.45 -32.30 8.94 -5.86 -62.23 0.64 -3.91 32.40 -1.07 -2.62 23.30 -1.24 -11.77 -8.96 -3.40 -5.09 64.36 -0.81 3.09 -0.00 -0.00 0.00 
1755.307983 48.980473 3442.507568 19.53 -11.56 24.79 1.69 -0.05 13.68 0.72 -0.02 5.86 -4.05 -2.38 -4.97 9.02 -1.69 -5.06 -1.24 1.06 -0.06 -63.03 46.36 18.27 -112.43 2.22 26.41 12.39 16.08 3.51 4.43 -6.88 -0.08 77.00 5.83 23.27 109.51 -2.60 31.36 -32.93 7.72 -5.17 -56.21 2.00 -0.85 26.61 -1.07 -2.40 23.43 -0.87 -12.06 -10.75 -2.87 -7.00 83.72 -2.30 3.38 -0.00 -0.00 0.00 
1758.973389 47.266251 3449.980225 18.92 -11.22 24.56 1.15 -1.01 9.54 0.49 -0.43 4.09 -2.67 -1.51 -3.04 7.64 0.05 -3.00 0.67 -2.34 -0.10 -67.87 35.79 14.72 -111.21 2.43 28.64 13.11 15.71 3.57 4.80 -5.99 -0.02 78.41 -2.66 25.61 100.59 -2.64 29.56 -43.24 0.18 -0.17 -52.30 3.94 2.96 33.56 -1.04 -2.69 15.42 -5.97 -10.84 -17.24 -5.34 -8.64 101.86 -3.77 3.50 -0.00 -0.00 0.00 
1765.001221 45.540184 3464.739258 21.01 -7.31 23.70 2.73 -4.12 2.03 1.17 -1.75 0.87 -5.36 -0.25 -0.39 5.42 2.09 -0.36 1.90 -5.72 -0.11 -72.72 14.39 12.54 -108.99 2.62 31.84 13.92 15.07 3.59 5.16 -5.13 -0.06 80.02 -11.65 16.68 88.58 -2.91 33.26 -37.64 10.15 -7.85 -48.30 -0.13 6.90 46.57 -0.66 -3.00 -1.81 -3.89 -12.16 -34.21 -12.28 -6.15 119.92 -4.67 2.52 -0.00 -0.00 0.00 
1762.988037 45.665268 3462.793945 21.73 -6.64 23.03 4.05 -3.30 -4.72 1.72 -1.41 -2.02 -6.00 -0.00 1.57 5.01 3.89 1.49 0.22 -4.60 -0.16 -78.66 -4.09 9.73 -108.39 3.19 39.77 13.55 13.34 3.07 5.21 -5.23 -0.05 77.40 -23.05 11.27 85.23 -3.01 34.78 -34.37 9.85 -6.92 -39.68 -1.99 3.78 48.21 -0.59 -3.16 -6.26 -2.74 -12.46 -53.48 -12.98 -4.10 123.64 -4.82 2.36 -0.00 -0.00 0.00 
